<svg id="Layer_2" data-name="Layer 2" xmlns="http://www.w3.org/2000/svg" xmlns:xlink="http://www.w3.org/1999/xlink" viewBox="0 0 115.94 39.9"><defs><style>.cls-1{fill:#00c9db;}.cls-2{fill:url(#linear-gradient);}.cls-3{fill:url(#linear-gradient-2);}.cls-4{fill:url(#linear-gradient-3);}.cls-5{fill:url(#radial-gradient);}.cls-6{fill:url(#radial-gradient-2);}.cls-7{fill:url(#radial-gradient-3);}.cls-8{fill:url(#linear-gradient-4);}.cls-9{fill:url(#radial-gradient-4);}.cls-10{fill:url(#linear-gradient-5);}.cls-11{fill:url(#radial-gradient-5);}.cls-12{fill:url(#linear-gradient-6);}.cls-13{fill:url(#linear-gradient-7);}.cls-14{fill:url(#radial-gradient-6);}.cls-15{fill:url(#linear-gradient-8);}.cls-16{fill:url(#radial-gradient-7);}.cls-17{fill:url(#linear-gradient-9);}.cls-18{fill:url(#linear-gradient-10);}.cls-19{fill:url(#linear-gradient-11);}.cls-20{fill:url(#linear-gradient-12);}.cls-21{fill:url(#linear-gradient-13);}.cls-22{fill:url(#linear-gradient-14);}.cls-23{fill:url(#linear-gradient-15);}.cls-24{fill:url(#linear-gradient-16);}.cls-25{fill:url(#radial-gradient-8);}.cls-26{fill:url(#linear-gradient-17);}.cls-27{fill:url(#radial-gradient-9);}.cls-28{fill:url(#linear-gradient-18);}.cls-29{fill:url(#linear-gradient-19);}.cls-30{fill:url(#radial-gradient-10);}.cls-31{font-size:36px;fill:#f1f1f1;font-family:MyriadPro-Regular, Myriad Pro;}</style><linearGradient id="linear-gradient" x1="2726.58" y1="3675.96" x2="2720" y2="3674.87" gradientTransform="matrix(0.05, -1, -1, -0.05, 3561.67, 2930.27)" gradientUnits="userSpaceOnUse"><stop offset="0" stop-color="#f0584b"/><stop offset="1" stop-color="#c73f3d"/></linearGradient><linearGradient id="linear-gradient-2" x1="2710.34" y1="3674.08" x2="2731" y2="3674.08" gradientTransform="matrix(0.05, -1, -1, -0.05, 3561.67, 2930.27)" gradientUnits="userSpaceOnUse"><stop offset="0" stop-color="#fcba39"/><stop offset="1" stop-color="#d96d2d"/></linearGradient><linearGradient id="linear-gradient-3" x1="2710.31" y1="3673.62" x2="2731" y2="3673.62" xlink:href="#linear-gradient-2"/><radialGradient id="radial-gradient" cx="2732.97" cy="3708.14" r="14.15" gradientTransform="matrix(0.05, -1.03, -1.03, -0.05, 3680.08, 3049.02)" gradientUnits="userSpaceOnUse"><stop offset="0" stop-color="#f9b314"/><stop offset="1" stop-color="#ec5222"/></radialGradient><radialGradient id="radial-gradient-2" cx="3671.35" cy="3963.35" r="14.16" gradientTransform="matrix(1, 0, 0, -1, 0, 39.93)" xlink:href="#radial-gradient"/><radialGradient id="radial-gradient-3" cx="33.7" cy="21.29" r="0.35" gradientTransform="matrix(1, 0, 0, -1, 0, 39.93)" xlink:href="#radial-gradient"/><linearGradient id="linear-gradient-4" x1="2710.17" y1="3673.7" x2="2731.08" y2="3673.7" xlink:href="#linear-gradient-2"/><radialGradient id="radial-gradient-4" cx="34.27" cy="20.04" r="0.13" gradientTransform="matrix(1, 0, 0, -1, 0, 39.93)" xlink:href="#radial-gradient"/><linearGradient id="linear-gradient-5" x1="2710.16" y1="3675.43" x2="2731.08" y2="3675.43" xlink:href="#linear-gradient-2"/><radialGradient id="radial-gradient-5" cx="32.13" cy="12.21" r="0.07" gradientTransform="matrix(1, 0, 0, -1, 0, 39.93)" xlink:href="#radial-gradient"/><linearGradient id="linear-gradient-6" x1="2710.17" y1="3681.38" x2="2731.08" y2="3681.38" xlink:href="#linear-gradient-2"/><linearGradient id="linear-gradient-7" x1="2710.2" y1="3675.59" x2="2730.96" y2="3675.59" xlink:href="#linear-gradient-2"/><radialGradient id="radial-gradient-6" cx="31.96" cy="12.02" r="0.04" gradientTransform="matrix(1, 0, 0, -1, 0, 39.93)" xlink:href="#radial-gradient"/><linearGradient id="linear-gradient-8" x1="2710.17" y1="3674.32" x2="2731.08" y2="3674.32" xlink:href="#linear-gradient-2"/><radialGradient id="radial-gradient-7" cx="33.71" cy="21.28" r="0.36" gradientTransform="matrix(1, 0, 0, -1, 0, 39.93)" xlink:href="#radial-gradient"/><linearGradient id="linear-gradient-9" x1="2726.85" y1="3674.2" x2="2720.31" y2="3673.11" xlink:href="#linear-gradient"/><linearGradient id="linear-gradient-10" x1="2726.82" y1="3674.49" x2="2720.25" y2="3673.39" xlink:href="#linear-gradient"/><linearGradient id="linear-gradient-11" x1="2726.29" y1="3677.61" x2="2719.72" y2="3676.52" xlink:href="#linear-gradient"/><linearGradient id="linear-gradient-12" x1="2726.48" y1="3677.38" x2="2719.82" y2="3676.27" xlink:href="#linear-gradient"/><linearGradient id="linear-gradient-13" x1="2710.15" y1="3674.05" x2="2731.09" y2="3674.05" xlink:href="#linear-gradient-2"/><linearGradient id="linear-gradient-14" x1="2726.82" y1="3674.5" x2="2720.25" y2="3673.41" xlink:href="#linear-gradient"/><linearGradient id="linear-gradient-15" x1="2709.5" y1="3673.61" x2="2731.47" y2="3673.61" xlink:href="#linear-gradient-2"/><linearGradient id="linear-gradient-16" x1="2727.05" y1="3674.25" x2="2720.13" y2="3673.1" xlink:href="#linear-gradient"/><radialGradient id="radial-gradient-8" cx="34.09" cy="20.45" r="0.19" gradientTransform="matrix(1, 0, 0, -1, 0, 39.93)" xlink:href="#radial-gradient"/><linearGradient id="linear-gradient-17" x1="2726.84" y1="3674.41" x2="2720.26" y2="3673.31" xlink:href="#linear-gradient"/><radialGradient id="radial-gradient-9" cx="34.37" cy="19.82" r="0.03" gradientTransform="matrix(1, 0, 0, -1, 0, 39.93)" xlink:href="#radial-gradient"/><linearGradient id="linear-gradient-18" x1="2726.85" y1="3674.2" x2="2720.32" y2="3673.11" xlink:href="#linear-gradient"/><linearGradient id="linear-gradient-19" x1="2710.16" y1="3674.59" x2="2731.08" y2="3674.59" xlink:href="#linear-gradient-2"/><radialGradient id="radial-gradient-10" cx="3671.35" cy="3963.36" r="14.16" gradientTransform="matrix(1, 0, 0, -1, 0, 39.93)" xlink:href="#radial-gradient"/></defs><title>logo-liam</title><path class="cls-1" d="M30.36,12.82c-.11-.19-.23-.39-.36-.59C25.29,4.91,18.7-.68,15.36.07a5.5,5.5,0,0,0-2.91,2.19,9.86,9.86,0,0,1,5.67,2.27,16.17,16.17,0,0,1,3.55,2.59c1.58,1.26,6.81,7.24,9.71,14.35,1.12,2.87,1.44,5.2.83,6.13l0,0c-.65,1-3.21,1.7-6.65,1.76a17.23,17.23,0,0,1-1.2,3.26c5.48.2,10-.77,11.29-2.79C37.42,27.13,35,19.61,30.36,12.82Z" transform="translate(0 0)"/><path class="cls-2" d="M34.38,20.14q-.41-1-.9-1.95a43.31,43.31,0,0,1-1.67,4.49c.75,2.3.92,4.12.4,4.92l0,0a1.91,1.91,0,0,1-.54.52C33,27.47,35.42,26.26,34.38,20.14Z" transform="translate(0 0)"/><path class="cls-1" d="M30.75,8.87l0,0c.83.92.79,3.76-.13,7.3-3.56,9.41-5.39,10.52-9.5,14.62-2.81,2.26-5.34,3.44-6.51,3h0c-.79-.26-1.66-1.45-2.43-3.25a39.46,39.46,0,0,1-4-1.35c1.25,4.52,3.14,7.88,5.16,8.52,3,1,9.4-3.13,14.65-9.18,6.66-7.92,8.32-19.72,5.79-22.47-1.63-1.78-6.29-2-11.74-.94A44.24,44.24,0,0,1,25.93,8C28.33,7.85,30.12,8.16,30.75,8.87Z" transform="translate(0 0)"/><path class="cls-3" d="M33.94,19.14l0-.06a0,0,0,0,0,0,0Z" transform="translate(0 0)"/><path class="cls-4" d="M34.35,20.06l0,0,0,0Z" transform="translate(0 0)"/><path class="cls-5" d="M34.33,20,34,19.31l.18.41Z" transform="translate(0 0)"/><path class="cls-6" d="M34.39,20.15c1.49,3.55,2.11,6.7,1.63,8.69l0,0c.49-2-.17-5.14-1.67-8.67h0Z" transform="translate(0 0)"/><path class="cls-7" d="M33.49,18.19c.15.29.29.6.43.9C33.78,18.79,33.64,18.49,33.49,18.19Z" transform="translate(0 0)"/><path class="cls-8" d="M34.35,20.05l0,0-.13-.3Z" transform="translate(0 0)"/><path class="cls-9" d="M34.35,20.05l0,0-.13-.3Z" transform="translate(0 0)"/><path class="cls-10" d="M32.07,27.8a1.77,1.77,0,0,0,.12-.17A1.77,1.77,0,0,1,32.07,27.8Z" transform="translate(0 0)"/><path class="cls-11" d="M32.07,27.8a1.77,1.77,0,0,0,.12-.17A1.77,1.77,0,0,1,32.07,27.8Z" transform="translate(0 0)"/><path class="cls-12" d="M34.39,20.15c1,6.12-1.44,7.32-2.73,8h0c-1.11.77-3.5,1.25-6.5,1.26a44.17,44.17,0,0,1-9-1.62,8.87,8.87,0,0,0,.17,1.36c0,.17.08.35.13.52,8.24,2.23,17.18,1.17,19.54-.8C36.5,26.86,35.88,23.7,34.39,20.15Z" transform="translate(0 0)"/><path class="cls-13" d="M31.91,28a.76.76,0,0,0,.09-.09A.76.76,0,0,1,31.91,28Z" transform="translate(0 0)"/><path class="cls-14" d="M31.91,28a.76.76,0,0,0,.09-.09A.76.76,0,0,1,31.91,28Z" transform="translate(0 0)"/><path class="cls-15" d="M33.92,19.08c-.14-.3-.28-.6-.43-.9.15.31.3.62.44.93A0,0,0,0,1,33.92,19.08Z" transform="translate(0 0)"/><path class="cls-16" d="M33.92,19.08c-.14-.3-.28-.6-.43-.9.15.31.3.62.44.93A0,0,0,0,1,33.92,19.08Z" transform="translate(0 0)"/><path class="cls-17" d="M34.38,20.15h0l0-.09h0Z" transform="translate(0 0)"/><path class="cls-18" d="M34,19.3l-.08-.16a.36.36,0,0,1,0,.09Z" transform="translate(0 0)"/><path class="cls-19" d="M31.67,28.13a1.55,1.55,0,0,0,.24-.19A1.55,1.55,0,0,1,31.67,28.13Z" transform="translate(0 0)"/><path class="cls-20" d="M32,27.86l.06-.06A.17.17,0,0,1,32,27.86Z" transform="translate(0 0)"/><path class="cls-21" d="M34,19.23a.36.36,0,0,0,0-.09v0Z" transform="translate(0 0)"/><path class="cls-22" d="M34,19.23a.36.36,0,0,0,0-.09v0Z" transform="translate(0 0)"/><path class="cls-23" d="M34.35,20.07h0Z" transform="translate(0 0)"/><path class="cls-24" d="M34.35,20.07h0Z" transform="translate(0 0)"/><path class="cls-25" d="M34.2,19.72,34,19.31l0-.08C34.06,19.39,34.13,19.56,34.2,19.72Z" transform="translate(0 0)"/><path class="cls-26" d="M34.2,19.72,34,19.31l0-.08C34.06,19.39,34.13,19.56,34.2,19.72Z" transform="translate(0 0)"/><path class="cls-27" d="M34.39,20.15h0l0-.09A.25.25,0,0,0,34.39,20.15Z" transform="translate(0 0)"/><path class="cls-28" d="M34.39,20.15h0l0-.09A.25.25,0,0,0,34.39,20.15Z" transform="translate(0 0)"/><path class="cls-29" d="M34.39,20.15a.3.3,0,0,1,0-.08v0c-.05-.1-.1-.22-.15-.33L34,19.23l-.06-.12c-.14-.3-.28-.61-.44-.92a43.31,43.31,0,0,1-1.67,4.49c.75,2.3.91,4.12.4,4.92l0,0-.13.17-.06.06-.09.09c-.08.06-.16.13-.24.18l0,0C33,27.47,35.42,26.27,34.39,20.15Z" transform="translate(0 0)"/><path class="cls-30" d="M34.39,20.15a.3.3,0,0,1,0-.08v0c-.05-.1-.1-.22-.15-.33L34,19.23l-.06-.12c-.14-.3-.28-.61-.44-.92a43.31,43.31,0,0,1-1.67,4.49c.75,2.3.91,4.12.4,4.92l0,0-.13.17-.06.06-.09.09c-.08.06-.16.13-.24.18l0,0C33,27.47,35.42,26.27,34.39,20.15Z" transform="translate(0 0)"/><path class="cls-1" d="M34,19.23h0a.61.61,0,0,0,0-.12v0c-.13-.3-.28-.6-.43-.9q-.72,2.28-1.67,4.49c.75,2.3.91,4.12.4,4.92l0,0-.13.17-.06.06-.08.07v0l-.24.18h0l-.19.12-.05,0-.2.11-.07,0-.22.1-.08,0-.24.1h0l-.54.17-.17.05-.2.05-.24,0-.18,0-.3.06-.16,0-.39.06-.09,0c-.78.1-1.56.17-2.35.2h-.65c.42-.5.83-1,1.24-1.53A36.6,36.6,0,0,0,33.35,9.91c.53.16,1,.33,1.54.53,0-1.94-.32-3.46-1.09-4.31-1.16-1.33-4-1.8-7.54-1.54h-.11l-.62.06-.18,0-.63.07-.14,0-.76.11-.22,0L23.05,5l-.32.06-.46.09-.21,0h0a44.28,44.28,0,0,0-6,1.66c-.21.06-.43.12-.65.2C9.15,9.11,3.54,12.5,1.18,15.52l0,0a6,6,0,0,0-1,1.73v0a2.79,2.79,0,0,0-.1.39v0a2.34,2.34,0,0,0-.07.45c-.11,1.77,1.57,4.13,4.3,6.49a6.92,6.92,0,0,1-.09-1.11,42.31,42.31,0,0,0,8.72,4.92,29,29,0,0,0,3.55,1.2h0l.47.12.17.05-.64-.17a9,9,0,0,0,.88,2.12c.64.17,1.27.31,1.9.43-2,1.34-3.72,2-4.62,1.67h0c-.79-.26-1.66-1.45-2.43-3.25-1.2-.34-2.33-.72-3.4-1.13l-.55-.17c1.24,4.45,3.1,7.76,5.08,8.44s5.4-1.55,9-5.1c6.38.63,12-.72,13.3-2.8a3.53,3.53,0,0,0,.39-1l-.26.2.26-.2h0l0,0C36.58,26.68,35.76,23.13,34,19.23Zm.92,10.28.33-.16a7.19,7.19,0,0,1-.86.37l.33-.13ZM33.63,30l.17,0,.37-.12c-.34.12-.71.23-1.1.33l.57-.16Zm-.73.2.1,0-.64.15h0l.5-.12Zm-.67.16c-.49.1-1,.19-1.55.27l.1,0c.51-.07,1-.16,1.45-.25Zm-2.34.37.77-.1-.78.1Zm0,0c-.57.06-1.17.11-1.78.14.62,0,1.21-.08,1.78-.14ZM8.69,23.93a18,18,0,0,1-3.83-3.66c-.06-.08-.11-.16-.16-.24l0-.06a5.36,5.36,0,0,1-.34-.62l-.06-.13s0-.09,0-.13,0-.1,0-.14a.3.3,0,0,1,0-.11.4.4,0,0,1,0-.15.29.29,0,0,0,0-.09,1.62,1.62,0,0,1,0-.22v0l0-.2s0,0,0-.06,0-.1,0-.15a.19.19,0,0,1,0-.07,1,1,0,0,1,.09-.21s0,0,0-.06.05-.1.08-.16l.06-.1.09-.13.07-.11L4.72,17l.16-.2.08-.1.14-.16.07-.08c.17-.18.37-.38.59-.58l0,0L6,15.59H6c.17-.15.35-.3.55-.45h0A19.64,19.64,0,0,1,8.4,13.83,75.66,75.66,0,0,1,24.67,8.09C25.1,8,25.52,8,25.93,8h0a14.92,14.92,0,0,1,2.41,0h0l.33,0h0a6.54,6.54,0,0,1,.88.18h0l.18,0,.1,0,.14.06.12,0,.11.05.11.06.09,0,.12.08.06.05a.93.93,0,0,1,.14.14l0,0a.8.8,0,0,1,.15.21h0a1.26,1.26,0,0,1,.13.26c.52,1.22.39,3.76-.41,6.82-3,8-4.8,10-7.79,12.93C15,28.11,13.27,26.63,8.69,23.93ZM21.37,30.6c-1-.13-2.08-.3-3.12-.53.3.07.61.13.91.18l.14,0c.69.13,1.38.23,2.06.32h0Zm-4.2-.78,1,.23h.08c-.36-.07-.71-.15-1.06-.24Zm6.9,1h0c.69,0,1.37.06,2,.06h0c.65,0,1.29,0,1.9,0a37.36,37.36,0,0,1-4,0Zm11.25-1.53.09,0,.2-.12,0,0-.33.19Z" transform="translate(0 0)"/><path class="cls-1" d="M33.49,18.19a45.8,45.8,0,0,1-1.68,4.49c.76,2.3.92,4.12.4,4.92l0,0c-.67,1.05-3.4,1.75-7,1.76-7.68-.79-10.34-1.86-13.46-3.67-.73-.42-1.48-.88-2.33-1.39l-.68-.4a20.14,20.14,0,0,1-3.35-3h0a4.23,4.23,0,0,1-1.26-2.51v0c0-.84,1-2,2.49-3.22a39.45,39.45,0,0,1,.26-4.2C2.82,13.32.1,16,0,18.15-.16,20.78,3.6,24.7,8.9,28h0l.83.5.08.05.87.5,0,0,.81.43.19.1.86.44.12.06h0c9.29,4.35,21.09,2.66,22.92-.24C37,27.84,36,23.2,33.49,18.19Z" transform="translate(0 0)"/><path class="cls-1" d="M14.64,33.87h0c-1.18-.39-2.55-2.86-3.51-6.39-1.59-9.95-.55-11.82,1-17.45C13.38,6.65,15,4.36,16.19,4.1h0c.8-.17,2.15.41,3.72,1.59a40.81,40.81,0,0,1,4.1-.84C20.72,1.56,17.42-.39,15.36.07,12.24.71,8.77,7.51,7.22,15.4,5.39,25.61,9.89,36.73,13.36,37.78c2.3.69,6.46-1.4,10.63-5.1a44.48,44.48,0,0,1-4.74-.47C17.24,33.54,15.54,34.16,14.64,33.87Z" transform="translate(0 0)"/><path class="cls-1" d="M15.42.06C12.73.71,9.94,7.44,8.84,15.32c-1.24,9.79,2.75,20.61,5.63,22.6,2.38,0,6-2.08,9.52-5.25a42,42,0,0,1-4.74-.47c-2,1.34-3.71,2-4.61,1.67h0c-1.18-.39-2.55-2.86-3.51-6.39-1.59-9.95-.55-11.82,1-17.45C13.38,6.65,15,4.36,16.19,4.1h0c.8-.17,2.15.41,3.72,1.59,1.2-.31,2.37-.56,3.5-.74L24,4.81C20.73,1.58,17.48-.35,15.42.06Z" transform="translate(0 0)"/><path class="cls-1" d="M22.35,34.05c.54-.43,1.1-.89,1.64-1.38a42,42,0,0,1-4.74-.47c-2,1.34-3.71,2-4.61,1.67h0a2,2,0,0,1-.63-.39C15,34.55,16.75,36.65,22.35,34.05Z" transform="translate(0 0)"/><path class="cls-1" d="M24,4.81h0a6.89,6.89,0,0,0-6-1.32,8.16,8.16,0,0,0-1.91.66l.14,0h0C17,3.92,18.38,4.5,20,5.68c1.2-.31,2.37-.56,3.51-.74Z" transform="translate(0 0)"/><text class="cls-31" transform="translate(43.15 30.9)">Liam</text></svg>